<?xml version="1.0" encoding="utf-8"?>
<!-- Generator: Adobe Illustrator 16.0.0, SVG Export Plug-In . SVG Version: 6.00 Build 0)  -->
<!DOCTYPE svg PUBLIC "-//W3C//DTD SVG 1.1//EN" "http://www.w3.org/Graphics/SVG/1.1/DTD/svg11.dtd">
<svg version="1.1" id="Layer_1" xmlns="http://www.w3.org/2000/svg" xmlns:xlink="http://www.w3.org/1999/xlink" x="0px" y="0px"
	 width="612px" height="111.446px" viewBox="0 0 612 111.446" enable-background="new 0 0 612 111.446" xml:space="preserve">
<g id="svg_268">
	<g>
		<g id="svg_269_6_">
			<path id="svg_270_6_" fill="#ED037C" d="M591.012,44.806c9.131,5.246,16.902,2.137,19.818-4.663
				c2.914-6.217,0.193-13.6-6.023-16.514c6.023-2.914,8.742-10.297,6.023-16.514c-3.109-6.605-10.688-9.714-19.818-4.469
				c-6.41,3.691-11.463,9.52-20.205,20.983C579.549,35.286,584.406,41.115,591.012,44.806z"/>
		</g>
		<g id="svg_271_6_">
			<path id="svg_272_6_" fill="#231F20" d="M29.332,92.989H1.938V21.104h25.646c14.183,0,21.372,7.383,21.372,19.428
				c0,6.023-2.526,10.88-6.995,14.183c6.023,3.303,9.714,8.937,9.714,17.097C51.675,84.829,43.126,92.989,29.332,92.989
				L29.332,92.989z M15.732,33.538v15.932h11.852c4.663,0,8.16-3.303,8.16-7.966c0-4.857-3.109-7.966-8.16-7.966H15.732
				L15.732,33.538z M27.195,61.904H15.538v18.457h11.852c5.246,0,10.297-2.138,10.297-9.132
				C37.88,65.401,34.189,61.904,27.195,61.904z"/>
			<path id="svg_273_6_" fill="#231F20" d="M56.532,23.823h13.6v46.823c0,7.577,3.498,10.297,10.88,9.909v12.628
				c-16.126,1.749-24.48-7.771-24.48-22.537V23.823L56.532,23.823L56.532,23.823z"/>
			<path id="svg_274_6_" fill="#231F20" d="M135.801,92.989h-12.823v-5.634c-4.08,4.469-9.714,6.8-16.125,6.8
				C92.863,94.155,81.4,81.72,81.4,66.177c0-15.542,11.269-28.365,27.2-28.365s27.2,12.823,27.2,28.365V92.989L135.801,92.989z
				 M108.795,50.829c-7.577,0-13.6,6.606-13.6,15.542c0,8.549,6.023,15.154,13.6,15.154s13.6-6.8,13.6-15.154
				C122.201,57.824,116.178,50.829,108.795,50.829z"/>
			<path id="svg_275_6_" fill="#231F20" d="M166.886,38.006c14.766,0,23.509,9.908,23.509,24.091v31.086h-13.6V61.709
				c0-3.109-0.972-10.297-9.909-10.297c-6.023,0-10.297,4.08-10.297,10.297v31.474h-13.6V62.097
				C142.989,48.303,152.509,38.006,166.886,38.006z"/>
			<path id="svg_276_6_" fill="#231F20" d="M222.258,94.349c-15.932,0-27.395-12.435-27.395-28.172
				c0-15.542,11.463-28.365,27.395-28.365c12.823,0,22.343,7.383,25.451,19.429h-14.571c-1.943-3.692-6.023-6.8-11.074-6.8
				c-7.577,0-13.6,7.189-13.6,15.737c0,8.549,6.023,15.543,13.6,15.543c5.051,0,9.326-3.108,11.074-6.8h14.571
				C244.795,87.161,235.081,94.349,222.258,94.349L222.258,94.349z"/>
			<path id="svg_277_6_" fill="#231F20" d="M299.583,92.989h-13.6V61.515c0-3.109-0.971-10.297-9.909-10.297
				c-6.022,0-10.297,4.274-10.297,10.297v31.474h-13.6V23.823h13.6v18.069c3.303-2.526,7.577-4.08,12.045-4.08
				c13.017,0,21.566,9.52,21.566,23.703L299.583,92.989L299.583,92.989z"/>
			<path id="svg_278_6_" fill="#231F20" d="M390.51,94.155c-6.217,0-11.463-2.137-15.35-6.217v23.508h-13.6V65.983
				c0-15.542,11.27-28.171,27.199-28.171c15.932,0,27.201,12.628,27.201,28.171C415.766,81.526,404.498,94.155,390.51,94.155z
				 M388.566,50.829c-7.578,0-13.6,6.8-13.6,15.154c0,8.549,6.021,15.543,13.6,15.543c7.576,0,13.6-6.605,13.6-15.543
				C402.166,57.435,396.143,50.829,388.566,50.829z"/>
			<path id="svg_279_6_" fill="#231F20" d="M471.332,66.177c0,16.126-12.045,28.172-26.811,28.172s-26.617-12.046-26.617-28.172
				c0-16.125,11.852-28.365,26.617-28.365C459.48,38.006,471.332,50.246,471.332,66.177z M457.732,66.372
				c0-9.325-5.828-15.737-13.018-15.737s-13.018,6.412-13.018,15.737c0,9.132,5.828,15.349,13.018,15.349
				S457.732,75.503,457.732,66.372z"/>
			<path id="svg_280_6_" fill="#231F20" d="M503,51.218c-8.549-1.554-14.377,3.108-14.377,10.686v31.085h-13.6V61.904
				c0-15.155,10.297-25.84,27.977-23.703V51.218L503,51.218z"/>
			<path id="svg_281_6_" fill="#231F20" d="M530.783,93.183c-15.543,1.749-23.703-7.771-23.703-22.537V24.018h13.6v13.794h9.521
				v13.794h-9.521V70.84c0,7.577,3.305,10.297,10.104,9.909V93.183L530.783,93.183z"/>
			<path id="svg_282_6_" fill="#231F20" d="M341.355,76.864c-2.332,3.497-6.412,5.245-10.686,5.245
				c-6.412,0-11.463-4.08-13.213-10.686h40.023c1.943-21.372-11.074-33.611-26.617-33.611c-14.959,0-27.2,12.823-27.2,28.365
				c0,15.543,12.241,28.172,27.2,28.172c12.822,0,21.955-6.994,25.258-17.485H341.355L341.355,76.864L341.355,76.864z
				 M330.863,50.052c6.412,0,11.658,3.886,13.211,10.297h-26.422C319.789,54.132,324.646,50.052,330.863,50.052z"/>
			<path id="svg_283_6_" fill="#231F20" d="M570.807,76.864c-2.332,3.497-6.412,5.245-10.686,5.245
				c-6.412,0-11.463-4.08-13.211-10.686h40.021c1.943-21.372-11.074-33.611-26.617-33.611c-14.959,0-27.199,12.823-27.199,28.365
				c0,15.543,12.24,28.172,27.199,28.172c12.824,0,21.955-6.994,25.258-17.485H570.807L570.807,76.864L570.807,76.864z
				 M560.121,50.052c6.41,0,11.656,3.886,13.211,10.297h-26.424C549.047,54.132,554.098,50.052,560.121,50.052z"/>
		</g>
	</g>
</g>
</svg>
